<svg
                                xmlns="http://www.w3.org/2000/svg"
                                width="19"
                                height="14"
                                viewBox="0 0 19 14"
                            >
                                <path
                                    fill="#FFF"
                                    fillRule="evenodd"
                                    d="M6.96 14a.974.974 0 0 1 .685-1.658l-4.352-4.383L18.035 7.906A.97.97 0 0 1 19 6.932a.97.97 0 0 1-.967-.97l-14.724.053 4.335-4.356a.976.976 0 0 1 0-1.374.964.964 0 0 1-1.368 0l-5.993 6.02A.979.979 0 0 1 0 7v.002a.98.98 0 0 1 .282.679l5.993 6.035a.961.961 0 0 1 .685.286"
                                ></path>
                            </svg>